<svg width="310" height="100" 
    xmlns="http://www.w3.org/2000/svg">
    <path d="M258.937 51.06c1.138 0 4.04 2.904 4.04 5.126 0 .2-.086.313-.26.338l-.08.005h-7.571c4.439 1.937 6.659 5.64 6.659 9.799 0 7.065-5.805 12.307-13.83 12.307-2.505 0-4.611-.285-6.376-.856a3.491 3.491 0 00-.57 1.88c0 1.432 1.326 2.224 3.672 2.277l.255.003h10.474c5.123 0 7.969 1.937 7.969 5.412 0 6.838-14.002 12.649-21.743 12.649-4.497 0-7.742-1.937-7.742-4.9 0-1.767 1.195-3.817 3.586-5.584-2.447-1.025-3.756-2.849-3.756-5.297 0-2.964 2.618-5.756 6.66-6.837-4.952-2.052-6.774-6.154-6.774-10.143 0-6.95 5.976-12.078 14.115-12.078 2.164 0 4.043.285 5.75.742 1.764-2.337 3.53-3.875 4.952-4.673a1.1 1.1 0 01.57-.17zm-20.948 38.685c2.277 5.127 7.457 6.266 11.498 6.266 3.644 0 6.148-1.31 6.148-3.19 0-1.543-1.223-2.34-3.824-2.391l-.274-.003h-8.71c-1.878 0-3.528-.228-4.838-.682zm-71.324-42.902c.342 0 .342.35.171.524-1.259 1.287-2.254 2.791-2.329 5.492l-.004.33v24.686c0 10.83-5.237 15.72-16.621 15.72-.57 0-1.138-.058-1.367-.117-.455-.115-.568-.523-.114-.756 4.57-1.995 7.174-6.163 7.283-11.69l.004-.362V53.19c0-2.911-1.025-4.484-2.333-5.823-.157-.16-.17-.467.091-.517l.078-.007h15.14zm129.67 8.318c6.944 0 11.895 3.533 11.895 8.546 0 5.584-6.204 9.459-15.54 9.459-.796 0-1.422-.058-2.048-.116 1.31 3.933 4.326 6.496 9.107 6.496 5.976 0 8.88-4.044 9.563-5.241.285-.513.74-.343.683.171-.456 3.588-4.782 12.59-15.483 12.59-8.823 0-14.912-6.152-14.912-15.61 0-9.8 6.545-16.295 16.735-16.295zm-99.216 0c.2 0 .31.087.336.262l.005.08v22.96c0 2.451.854 5.014 1.879 7.066.1.202.022.36-.156.393l-.071.006H187.5c-.2 0-.312-.088-.337-.263l-.006-.08v-5.583c-1.821 4.5-5.178 7.065-9.448 7.065-4.977 0-7.812-3.685-7.91-10.244l-.002-.354V64.62c0-3.589-.91-5.014-1.65-5.754-.152-.153-.124-.395.044-.486l.07-.027 10.7-2.963c.569-.17.798-.228.967-.228.2 0 .313.087.337.262l.006.08v20.624c0 3.02 1.08 4.615 3.016 4.615 2.331 0 3.634-2.111 3.698-6.23l.002-.32v-9.574c0-3.588-.91-5.013-1.651-5.753-.151-.153-.123-.395.044-.486l.07-.027 10.7-2.963c.57-.17.798-.228.97-.228zm-65.461 0c6.945 0 11.896 3.533 11.896 8.546 0 5.584-6.204 9.459-15.539 9.459-.797 0-1.422-.058-2.048-.116 1.309 3.933 4.326 6.496 9.107 6.496 5.976 0 8.88-4.044 9.562-5.241.285-.513.74-.343.684.171-.456 3.588-4.782 12.59-15.483 12.59-8.823 0-14.912-6.152-14.912-15.61 0-9.8 6.545-16.295 16.733-16.295zM14.856 48.837c.229 0 .342.114.342.343 0 .44-.215 3.133-.228 6.776v.344h7.856c.204 0 .409.094.365.278l-.024.065-1.138 2.222c-.1.198-.112.31-.267.336l-.076.005H14.97v18.972c0 2.45 1.311 3.817 3.644 3.817 1.8 0 3.319-.884 4.686-2.482-1.249-2.427-1.783-5.199-1.783-7.943 0-9.459 6.83-16.41 16.108-16.41 10.701 0 16.109 6.951 16.109 15.156 0 9.686-6.66 16.75-15.824 16.75-7.06 0-11.414-2.595-13.845-6.249-2.069 3.939-5.837 6.136-10.63 6.136-5.59 0-8.818-2.91-8.934-8.032l-.003-.286V59.206H.342c-.228 0-.342-.114-.342-.284 0-.21.144-.37.607-.702l.134-.095 13.148-8.831c.512-.343.797-.457.967-.457zm59.255 0c.228 0 .341.114.341.343 0 .44-.213 3.133-.226 6.776v.344h7.285c.202 0 .315.091.257.271l-.03.072-.968 2.28c-.048.145-.138.25-.307.276l-.091.007h-6.147v18.972c0 2.85 1.253 4.046 3.642 4.046 1.48 0 2.505-.342 3.132-1.025.17-.172.285-.23.399-.23.284 0 .284.286.17.571-1.31 3.59-4.667 5.413-9.335 5.413-5.533 0-8.376-2.91-8.478-8.032l-.003-.286V59.206h-4.156c-.227 0-.34-.114-.34-.284 0-.21.143-.37.605-.702l.134-.095 13.148-8.831c.514-.343.797-.457.968-.457zm20.662-4.33c.228 0 .343.114.343.342 0 .328-.21 1.645-.228 3.753l-.001.293v12.933c1.879-4.274 5.123-6.667 9.279-6.667 4.976 0 7.811 3.685 7.909 10.244l.003.354v12.704c0 2.451.853 5.014 1.877 7.066.102.202.023.36-.156.393l-.071.006H99.953c-.227 0-.342-.172-.227-.4 1.125-2.198 1.795-4.245 1.87-6.617l.007-.448V66.1c0-3.02-1.08-4.614-3.016-4.614-2.331 0-3.634 2.111-3.698 6.23l-.002.321v10.426c0 2.451.854 5.014 1.879 7.066.1.202.022.36-.156.393l-.072.006H82.763c-.228 0-.341-.172-.228-.4 1.126-2.198 1.797-4.245 1.872-6.617l.007-.448V56.814c0-2.78-.937-5.038-2.464-6.924l-.212-.255-.568-.74c-.152-.153-.124-.395.044-.486l.07-.027 12.523-3.647c.568-.17.797-.228.966-.228zM222.45 55.16c4.977 0 7.812 3.685 7.91 10.244l.002.354v12.704c0 2.451.853 5.014 1.879 7.066.101.202.022.36-.157.393l-.072.006h-13.774c-.227 0-.34-.172-.227-.4 1.125-2.198 1.795-4.245 1.87-6.617l.007-.448V66.1c0-3.02-1.08-4.614-3.017-4.614-2.33 0-3.633 2.111-3.697 6.23l-.003.321v10.426c0 2.451.741 5.071 1.88 7.066.1.202.022.36-.157.393l-.071.006h-13.774c-.23 0-.343-.172-.23-.4 1.237-2.152 1.814-4.254 1.875-6.64l.005-.425V64.618c0-3.588-.968-4.955-1.65-5.753-.152-.153-.125-.395.044-.486l.07-.027 10.7-2.963c.569-.17.796-.228.968-.228.227 0 .34.114.34.343 0 1.14-.113 3.817-.17 6.723 1.822-4.502 5.18-7.066 9.45-7.066zm53.792-10.654c.227 0 .34.114.34.342 0 .328-.207 1.645-.225 3.753l-.001.293v29.568c0 2.451.854 5.014 1.878 7.066.101.202.023.36-.155.393l-.072.006H264.23c-.227 0-.34-.172-.227-.4 1.125-2.198 1.797-4.245 1.872-6.617l.007-.448V56.814c0-2.78-.939-5.038-2.464-6.924l-.212-.255-.57-.74c-.15-.153-.123-.395.045-.486l.07-.027 12.522-3.647c.57-.17.797-.228.968-.228zM37.037 56.924l-.153.004c-3.187.17-4.212 5.128-3.756 14.357.512 9.286 2.049 14.186 5.237 14.014 3.188-.17 4.268-5.183 3.813-14.412-.495-8.989-2.004-13.814-4.99-13.96l-.15-.003zm210.095-.002l-.15.006c-2.447.113-3.528 3.59-3.13 10.083.398 6.837 2.05 9.914 4.44 9.857 2.619-.114 3.53-3.818 3.131-10.142-.383-6.239-1.764-9.693-4.144-9.801l-.147-.003zm48.348.006c-3.927 0-5.578 6.267-5.578 11.167 0 1.367.17 2.677.456 3.874 4.951-1.082 7.74-4.558 7.74-10.141 0-3.305-1.024-4.9-2.618-4.9zm-164.675 0c-3.927 0-5.579 6.267-5.579 11.167 0 1.367.171 2.677.456 3.874 4.951-1.082 7.741-4.558 7.741-10.141 0-3.305-1.024-4.9-2.618-4.9zM83.406 5.384c2.191 3.624 4.197 9.237 1.457 19.186-1.503 5.457-5.114 16.218-17.318 18.037-2.392.357-3.164-.518-4.014-1.696-1.662-2.303-3.683-7.229-2.805-13.532.416-2.985 1.027-4.876 1.91-7.436l-.002.002-.428.794c-3.74 6.942-7.788 14.952-11.658 20.741l-.446.658c-.47.684-.932.767-1.196.62-.246-.139-.2-.601-.04-1.248C53.43 23.077 41.168 8.096 37.407 3.617c-.297-.293-.39-1.077.457-1.15l.134-.006h14.7c.501 0 .542.149.791.286.872.48 6.022 11.518 3.84 21.96 4.868-8.915 9.061-14.888 9.184-15.085.297-.48.611-.502.9-.394.455.172.374.586.334.785-1.68 8.244-.477 16.97 2.194 21.47 2.498 4.21 7.59 5.388 9.439 1.133 4.553-10.474-6.871-23.144-9.086-25.506-1.058-1.144-.707-1.992-.442-2.271 4.761-4.809 11.303-3.18 13.554.545zm94.359 5.27c10.7 0 16.108 6.95 16.108 15.155 0 9.685-6.66 16.75-15.823 16.75-9.36 0-13.966-4.558-15.634-10.101-1.572 4.154-5.919 10.101-14.478 10.101-8.88 0-14.857-6.268-14.857-15.611 0-10.427 7.172-16.294 15.539-16.294 4.953 0 8.937 2.164 11.841 7.235.71 1.313.633 2.363-.483 2.797l-.145.051-8.31 2.451c-.399.114-.626 0-.455-.798 1.138-5.526.227-9.97-2.618-9.97-3.473 0-5.067 6.38-5.067 11.053 0 6.723 3.302 11.565 9.734 11.565 4.815 0 7.632-2.726 8.865-4.364a19.706 19.706 0 01-.326-3.612c0-9.458 6.83-16.408 16.109-16.408zm-74.284 0c6.945 0 11.897 3.532 11.897 8.546 0 5.584-6.205 9.457-15.54 9.457-.796 0-1.422-.056-2.048-.114 1.31 3.931 4.326 6.495 9.106 6.495 5.977 0 8.88-4.044 9.563-5.24.285-.515.74-.343.684.17-.456 3.589-4.782 12.591-15.483 12.591-8.823 0-14.914-6.154-14.914-15.611 0-9.799 6.547-16.294 16.735-16.294zm156.933 0c6.945 0 11.897 3.532 11.897 8.546 0 5.584-6.205 9.457-15.54 9.457a20.88 20.88 0 01-2.048-.114c1.31 3.931 4.326 6.495 9.106 6.495 5.977 0 8.88-4.044 9.564-5.24.285-.515.74-.343.683.17-.456 3.589-4.782 12.591-15.483 12.591-8.822 0-14.914-6.154-14.914-15.611 0-9.799 6.547-16.294 16.735-16.294zm-27.322 0c4.64 0 7.468 3.682 7.568 9.912l.003.343v13.047c0 2.449.625 5.071 1.65 7.064.1.204.022.36-.156.393l-.072.006h-13.32c-.226 0-.341-.17-.226-.399 1.066-2.136 1.583-4.222 1.644-6.587l.006-.477V21.25c0-2.677-1.082-4.272-2.676-4.272-1.995 0-3.288 2.106-3.355 5.899l-.003.311v10.768c0 2.449.74 5.014 1.65 7.064.103.204.023.36-.155.393l-.072.006h-13.32c-.227 0-.34-.17-.227-.399 1.014-2.19 1.577-4.229 1.643-6.588l.007-.476V21.25c0-2.677-1.08-4.272-2.674-4.272-1.996 0-3.29 2.106-3.356 5.899l-.003.311v10.768c0 2.449.626 5.071 1.651 7.064.101.204.023.36-.156.393l-.072.006h-13.547c-.228 0-.341-.17-.228-.399 1.237-2.151 1.814-4.253 1.874-6.64l.005-.424V20.11c0-3.59-.968-4.956-1.651-5.754-.151-.152-.123-.394.045-.486l.07-.026 10.7-2.964c.57-.171.797-.227.968-.227.227 0 .34.113.34.341 0 1.14-.113 3.817-.169 6.723 1.821-4.501 5.179-7.064 9.106-7.064 3.783 0 6.37 2.448 7.23 6.76l.056.304h.115c1.82-4.501 5.18-7.064 9.107-7.064zM129.723 0c.227 0 .34.114.34.341 0 .328-.207 1.645-.225 3.752l-.001.293v29.57c0 2.45.853 5.014 1.878 7.064.101.204.023.36-.156.393l-.072.006h-13.775c-.227 0-.34-.17-.227-.4 1.125-2.197 1.795-4.244 1.87-6.615l.007-.448v-21.65c0-2.78-.937-5.038-2.462-6.924l-.212-.255-.57-.741c-.152-.151-.123-.393.045-.486l.07-.027L128.754.227c.57-.17.797-.227.968-.227zm47.454 12.415l-.153.004c-3.186.171-4.212 5.129-3.756 14.359.512 9.286 2.049 14.186 5.236 14.014 3.188-.171 4.27-5.185 3.814-14.413-.496-8.988-2.004-13.813-4.99-13.96l-.15-.004zm-74.55.004c-3.927 0-5.578 6.268-5.578 11.168 0 1.367.171 2.677.456 3.873 4.952-1.081 7.74-4.557 7.74-10.141 0-3.305-1.023-4.9-2.617-4.9zm156.934 0c-3.927 0-5.579 6.268-5.579 11.168 0 1.367.172 2.677.456 3.873 4.952-1.081 7.741-4.557 7.741-10.141 0-3.305-1.024-4.9-2.618-4.9z" fill="currentColor" fill-rule="evenodd"/>
</svg>